# xmcd CD database file
#
# Track frame offsets:
#	150
#	10212
#	26257
#	37994
#	49465
#	60875
#	72547
#	86165
#	97963
#	114020
#	127377
#	141722
#	154274
#	167976
#	183097
#	196699
#	212568
#	223284
#	236093
#	248424
#	260900
#	273638
#	293845
#
# Disc length: 4149 seconds
#
# Revision: 0
# Processed by: cddbd v1.5.2PL0 Copyright (c) Steve Scherf et al.
# Submitted via: CDex 1.70beta2
#
DISCID=5b103317
DTITLE=Frank Sinatra - Romance CD2
DYEAR=1900
DGENRE=Jazz
TTITLE0=A Fine Romance
TTITLE1=I've Got You Under My Skin
TTITLE2=Have You Met Miss Jones
TTITLE3=Fly Me To The Moon
TTITLE4=My Funny Valentine
TTITLE5=What Is This Thing Called Love
TTITLE6=Bewitched
TTITLE7=I'm Beginning To See The Light
TTITLE8=The Very Thought Of You
TTITLE9=Summer Wind
TTITLE10=Like Someone In Love
TTITLE11=Quiet Night Of Quiet Stars
TTITLE12=Desafinado
TTITLE13=Wave
TTITLE14=I Have Dreamed
TTITLE15=I Only Have Eyes For You
TTITLE16=Love Walked In
TTITLE17=It's Always You
TTITLE18=They Can't Take That Away From Me
TTITLE19=The Look Of Love
TTITLE20=Call Me
TTITLE21=It Was A Very Good Year
TTITLE22=All The Way (with Celine Dion)
EXTD=
EXTT0=
EXTT1=
EXTT2=
EXTT3=
EXTT4=
EXTT5=
EXTT6=
EXTT7=
EXTT8=
EXTT9=
EXTT10=
EXTT11=
EXTT12=
EXTT13=
EXTT14=
EXTT15=
EXTT16=
EXTT17=
EXTT18=
EXTT19=
EXTT20=
EXTT21=
EXTT22=
PLAYORDER=
